<svg width="100" height="100" viewBox="0 0 100 100" fill="none" xmlns="http://www.w3.org/2000/svg">
<rect width="100" height="100" rx="13" fill="#0047FF"/>
<g filter="url(#filter0_d_1173_4658)">
<path d="M75.9371 85.9999H23.3707C21.6961 86.0041 20.0874 85.3604 18.8944 84.2087C17.7015 83.057 17.0207 81.4905 17 79.8497L26.2423 31.586C26.2423 30.5488 26.6617 29.5539 27.4087 28.8191C28.1557 28.0842 29.1694 27.6694 30.2279 27.6653H70.2254C70.7509 27.6653 71.2712 27.7667 71.7567 27.9637C72.2421 28.1608 72.6832 28.4496 73.0548 28.8136C73.4264 29.1777 73.7211 29.6099 73.9222 30.0856C74.1233 30.5613 74.2268 31.0712 74.2268 31.586L82.3079 79.7728C82.3079 80.5919 82.143 81.4029 81.8226 82.1594C81.5023 82.9159 81.0328 83.603 80.441 84.1815C79.8492 84.7599 79.1468 85.2183 78.3739 85.5303C77.6011 85.8423 76.773 86.0019 75.9371 85.9999Z" fill="white"/>
</g>
<path d="M36.2231 38.013C37.679 38.013 38.8592 36.8565 38.8592 35.4299C38.8592 34.0033 37.679 32.8468 36.2231 32.8468C34.7672 32.8468 33.5869 34.0033 33.5869 35.4299C33.5869 36.8565 34.7672 38.013 36.2231 38.013Z" fill="#2357FD"/>
<path d="M63.0844 38.0132C64.5403 38.0132 65.7206 36.8567 65.7206 35.4301C65.7206 34.0035 64.5403 32.847 63.0844 32.847C61.6285 32.847 60.4482 34.0035 60.4482 35.4301C60.4482 36.8567 61.6285 38.0132 63.0844 38.0132Z" fill="#2357FD"/>
<path d="M40.8985 13.4023C43.2202 11.1274 46.3699 9.84855 49.6551 9.84855C52.9403 9.84855 56.0901 11.1274 58.4118 13.4023C60.7333 15.677 62.0366 18.7613 62.0366 21.9763V35.0301C62.0366 35.6052 62.5111 36.0638 63.087 36.0638C63.6629 36.0638 64.1374 35.6052 64.1374 35.0301V21.9763C64.1374 18.2101 62.6105 14.5991 59.8941 11.9373C57.1778 9.27574 53.4947 7.78125 49.6551 7.78125C45.8156 7.78125 42.1325 9.27574 39.4162 11.9373C36.6998 14.5991 35.1729 18.2101 35.1729 21.9763V35.0301C35.1729 35.6052 35.6473 36.0638 36.2232 36.0638C36.7992 36.0638 37.2736 35.6052 37.2736 35.0301V21.9763C37.2736 18.7613 38.577 15.677 40.8985 13.4023Z" fill="#D2CBFF" stroke="#D2CBFF" stroke-width="0.437499" stroke-miterlimit="10" stroke-linecap="round"/>
<path d="M55.7914 72.0544C55.5983 71.5641 55.2614 71.1408 54.8232 70.838C54.3849 70.5351 53.8649 70.3662 53.3288 70.3526C52.7927 70.3391 52.2645 70.4814 51.8109 70.7616C51.3572 71.0419 50.9984 71.4475 50.7798 71.9274C50.5612 72.4072 50.4925 72.9398 50.5825 73.4578C50.6724 73.9759 50.9169 74.4562 51.2852 74.8382C51.6534 75.2202 52.1289 75.4868 52.6516 75.6043C53.1743 75.7218 53.7208 75.685 54.2222 75.4985C54.8846 75.2311 55.4169 74.7246 55.7089 74.0836C56.001 73.4425 56.0305 72.7161 55.7914 72.0544ZM66.7754 68.149C66.5931 67.6451 66.2627 67.2054 65.8256 66.8854C65.3886 66.5653 64.8647 66.3793 64.3199 66.3507C63.7751 66.3222 63.2339 66.4524 62.7645 66.7249C62.2952 66.9974 61.9187 67.4 61.6826 67.8819C61.4465 68.3639 61.3614 68.9036 61.438 69.4328C61.5146 69.9621 61.7494 70.4573 62.1129 70.856C62.4764 71.2546 62.9523 71.5388 63.4805 71.6728C64.0087 71.8067 64.5655 71.7843 65.0807 71.6085C65.7723 71.3681 66.3387 70.8694 66.6562 70.2212C66.9737 69.573 67.0166 68.828 66.7754 68.149ZM67.7326 59.2466C67.1363 55.249 66.4929 51.2667 65.8653 47.2691C65.8311 47.0024 65.7402 46.7458 65.5985 46.5157C65.3852 46.2136 65.0685 45.9964 64.7058 45.9033C64.3432 45.8102 63.9585 45.8475 63.6214 46.0083C56.2987 48.5914 49.0074 51.1898 41.7475 53.8037L41.4337 53.9113C41.3968 53.9345 41.3549 53.9491 41.3114 53.9537C41.2678 53.9584 41.2237 53.9531 41.1826 53.9381C41.1415 53.9232 41.1045 53.8991 41.0746 53.8678C41.0446 53.8364 41.0225 53.7987 41.01 53.7575L40.0999 52.1124C39.9162 51.6877 39.6472 51.3035 39.3091 50.9826C38.971 50.6617 38.5705 50.4106 38.1314 50.2443C37.6924 50.0779 37.2237 49.9997 36.7532 50.0142C36.2827 50.0287 35.82 50.1357 35.3925 50.3288C34.6079 50.5902 33.8233 50.8977 33.0544 51.1437C32.6701 51.2293 32.3283 51.4434 32.0877 51.7493C31.8471 52.0552 31.7229 52.4337 31.7363 52.8196L32.0031 53.5576C32.24 53.867 32.5788 54.0865 32.962 54.1789C33.3453 54.2714 33.7493 54.2312 34.1057 54.065L36.5065 53.204C37.0244 53.0195 37.1028 53.0656 37.3539 53.5423C38.4837 55.6026 39.6135 57.6475 40.7275 59.6925L41.622 61.23L42.3595 60.9686C42.641 60.8692 42.939 60.8223 43.2382 60.8303C43.8335 60.834 44.4087 61.0423 44.8633 61.4189C45.3179 61.7956 45.6232 62.3167 45.726 62.8913C45.8287 63.4659 45.7223 64.0576 45.4254 64.5633C45.1285 65.0689 44.6598 65.4564 44.1012 65.6582C44.3209 66.0887 44.5563 66.5038 44.7916 66.9343C45.2671 67.9189 46.1095 68.6875 47.1456 69.0822C48.1818 69.4769 49.3328 69.4675 50.3621 69.0561L64.7355 63.9361C65.1003 63.8034 65.4522 63.6388 65.7868 63.4441C66.5089 63.022 67.0822 62.3938 67.4299 61.6436C67.7777 60.8935 67.8833 60.0572 67.7326 59.2466Z" fill="#2357FD"/>
<path fill-rule="evenodd" clip-rule="evenodd" d="M37.9628 58.8657C38.1687 59.4203 37.8767 60.0334 37.3106 60.2351L27.2995 63.8022C26.7334 64.0039 26.1077 63.7178 25.9019 63.1632C25.6961 62.6085 25.9881 61.9954 26.5541 61.7937L36.5653 58.2266C37.1313 58.0249 37.757 58.3111 37.9628 58.8657Z" fill="#3B69FE"/>
<path fill-rule="evenodd" clip-rule="evenodd" d="M41.2494 69.613C41.4555 70.1676 41.1637 70.7808 40.5977 70.9827L33.4424 73.535C32.8765 73.7369 32.2506 73.451 32.0446 72.8964C31.8386 72.3419 32.1304 71.7286 32.6963 71.5268L39.8516 68.9744C40.4176 68.7725 41.0434 69.0584 41.2494 69.613Z" fill="#3B69FE"/>
<path d="M35.9839 67.0417C35.7607 67.0393 35.5435 66.9703 35.3613 66.844C35.1791 66.7176 35.0405 66.5399 34.9639 66.3344C34.9116 66.2034 34.8869 66.0634 34.8911 65.9228C34.8953 65.7822 34.9284 65.6438 34.9885 65.5161C35.0486 65.3883 35.1343 65.2737 35.2407 65.1792C35.347 65.0847 35.4717 65.0122 35.6073 64.966L42.841 62.3829C43.1136 62.2748 43.4189 62.2773 43.6896 62.3898C43.9603 62.5022 44.1744 62.7154 44.2847 62.9825C44.3949 63.2496 44.3924 63.5487 44.2777 63.814C44.1629 64.0793 43.9453 64.289 43.6727 64.3971L36.4389 66.9648C36.2947 67.0222 36.1394 67.0484 35.9839 67.0417Z" fill="#3B69FE"/>
<defs>
<filter id="filter0_d_1173_4658" x="11" y="27.6653" width="77.3076" height="70.3346" filterUnits="userSpaceOnUse" color-interpolation-filters="sRGB">
<feFlood flood-opacity="0" result="BackgroundImageFix"/>
<feColorMatrix in="SourceAlpha" type="matrix" values="0 0 0 0 0 0 0 0 0 0 0 0 0 0 0 0 0 0 127 0" result="hardAlpha"/>
<feOffset dy="6"/>
<feGaussianBlur stdDeviation="3"/>
<feComposite in2="hardAlpha" operator="out"/>
<feColorMatrix type="matrix" values="0 0 0 0 0 0 0 0 0 0 0 0 0 0 0 0 0 0 0.3 0"/>
<feBlend mode="normal" in2="BackgroundImageFix" result="effect1_dropShadow_1173_4658"/>
<feBlend mode="normal" in="SourceGraphic" in2="effect1_dropShadow_1173_4658" result="shape"/>
</filter>
</defs>
</svg>
